<?xml version="1.0" encoding="utf-8"?><svg xmlns="http://www.w3.org/2000/svg" xmlns:xlink="http://www.w3.org/1999/xlink"><symbol viewBox="0 0 478.448 478.448" id="carousel-next"><path d="M131.659 0l-31.165 32.035 213.31 207.197-213.31 207.141 31.156 32.075 246.304-239.216z"/></symbol><symbol viewBox="0 0 370.814 370.814" id="carousel-prev"><path d="M292.92 24.848L268.781 0 77.895 185.401l190.886 185.413 24.139-24.853-165.282-160.56z"/></symbol><symbol viewBox="0 0 512 512" id="contacts-address"><path d="M256 0C153.755 0 70.573 83.182 70.573 185.426c0 126.888 165.939 313.167 173.004 321.035 6.636 7.391 18.222 7.378 24.846 0 7.065-7.868 173.004-194.147 173.004-321.035C441.425 83.182 358.244 0 256 0zm0 278.719c-51.442 0-93.292-41.851-93.292-93.293S204.559 92.134 256 92.134s93.291 41.851 93.291 93.293-41.85 93.292-93.291 93.292z"/></symbol><symbol viewBox="0 0 124.099 124.1" id="contacts-email"><path d="M18.25 106.7c5.6 5.399 12.3 9.8 20.1 12.8 7.8 3 16.5 4.6 25.9 4.6 10.5 0 20.2-1.6 28.9-4.899 7.9-2.9 1.1-17.601-4.7-15.2-6.399 2.7-14.2 4.1-23.101 4.1-7 0-13.399-1.1-19-3.199-5.6-2.101-10.5-5.101-14.5-9-4-3.9-7.2-8.7-9.4-14.2-2.3-5.601-3.4-12-3.4-19 0-6.6 1.1-12.9 3.3-18.5 2.2-5.6 5.2-10.6 9.2-14.6 3.9-4.1 8.7-7.4 14.2-9.7 5.5-2.3 11.7-3.5 18.5-3.5 6.301 0 12.1.9 17.301 2.5 5.1 1.6 9.5 4.1 13.199 7.4 3.7 3.3 6.6 7.3 8.7 12.1 2.101 4.8 3.101 10.4 3.101 16.8 0 3.7-.4 7.2-1.201 10.5-.799 3.1-1.799 5.899-3.199 8.1-1.301 2.101-2.801 3.8-4.6 5-2.101 1.4-5.201 2.2-7.601 1.4-3-1-2.399-5.2-2.2-7.7.301-3.4 1.2-6.6 1.9-9.9 1.1-5.4 2.3-10.7 3.4-16 .6-2.9 1.299-5.9 1.899-8.8.8-3.7-2-7.3-5.899-7.3h-4.4c-2.7 0-5.1 1.8-5.801 4.4-.299 1.2-.6 2.2-.6 2.2-2.199-6.8-10.3-8.7-16.7-8.6-8.4.1-16.1 4.4-21.7 10.5-.5.6-1.1 1.2-1.6 1.8-2.9 3.5-5.1 7.6-6.6 11.9-1.6 4.6-2.4 9.3-2.4 14.1 0 4.101.6 8 1.7 11.5 1.2 3.601 2.9 6.7 5.1 9.3 2.2 2.601 5 4.7 8.3 6.2 3.3 1.5 7 2.3 11 2.3 3 0 5.8-.5 8.3-1.399 2.4-.9 4.6-2 6.5-3.3 1.5-1 2.9-2.2 4-3.301.699 1.301 1.5 2.4 2.6 3.5 2.801 3 7.1 4.5 12.801 4.5 4.5 0 8.899-.899 13-2.699 4.1-1.801 7.799-4.601 10.899-8.2 3-3.601 5.5-8 7.3-13.2 1.801-5.2 2.7-11.2 2.7-17.8 0-9-1.7-17-5-23.7s-7.8-12.4-13.399-16.9c-5.5-4.5-11.9-7.8-19-10.1C79.05 1.1 71.75 0 64.25 0c-8.7 0-17 1.6-24.7 4.7-7.7 3.2-14.5 7.6-20.2 13.1-5.8 5.5-10.4 12.2-13.7 19.7-3.3 7.5-5 15.9-5 24.7 0 8.899 1.5 17.3 4.6 24.8 3 7.6 7.4 14.2 13 19.7zm54.099-42c-.699 2.7-1.699 5.3-3.1 7.7-1.4 2.3-3.1 4.199-5.3 5.699-2 1.4-4.4 2.101-7.4 2.101-1.9 0-3.4-.4-4.5-1.101-1.2-.8-2.2-1.8-2.9-3.1-.8-1.4-1.3-2.9-1.6-4.4-.3-1.6-.5-3.1-.5-4.399 0-2.8.4-5.6 1.2-8.5.8-2.8 1.9-5.4 3.4-7.6 1.5-2.2 3.2-4 5.3-5.4 1.9-1.3 4-1.9 6.5-1.9 2 0 3.601.3 4.8 1 1.2.7 2.2 1.6 2.9 2.7.8 1.2 1.3 2.6 1.699 4.1.4 1.7.601 3.5.601 5.2-.1 2.5-.399 5.1-1.1 7.9z"/></symbol><symbol viewBox="0 0 348.077 348.077" id="contacts-tel"><path d="M340.273 275.083l-53.755-53.761c-10.707-10.664-28.438-10.34-39.518.744l-27.082 27.076a792.327 792.327 0 0 1-5.344-2.973c-17.102-9.476-40.509-22.464-65.14-47.113-24.704-24.701-37.704-48.144-47.209-65.257-1.003-1.813-1.964-3.561-2.913-5.221l18.176-18.149 8.936-8.947c11.097-11.1 11.403-28.826.721-39.521L73.39 8.194c-10.682-10.68-28.421-10.356-39.518.744l-15.15 15.237.414.411c-5.08 6.482-9.325 13.958-12.484 22.02C3.74 54.28 1.927 61.603 1.098 68.941-6 127.785 20.89 181.564 93.866 254.541c100.875 100.868 182.167 93.248 185.674 92.876 7.638-.913 14.958-2.738 22.397-5.627 7.992-3.122 15.463-7.361 21.941-12.43l.331.294 15.348-15.029c11.074-11.098 11.393-28.83.716-39.542z"/></symbol><symbol viewBox="0 0 139.4 44.7" id="dorohovdesign"><path d="M52.2 19.5V8.1H57c3.6 0 6.1 2.1 6.1 5.7 0 3.5-2.6 5.7-6.1 5.7h-4.8zm7.9-5.7c0-1.8-1.1-3.1-3.1-3.1h-1.9v6.2H57c2 0 3.1-1.4 3.1-3.1m4.1 0c0-3.4 2.6-5.9 6.1-5.9 3.5 0 6.1 2.4 6.1 5.9 0 3.5-2.6 5.9-6.1 5.9-3.5 0-6.1-2.4-6.1-5.9m9.2 0c0-1.9-1.2-3.3-3.1-3.3-1.9 0-3.1 1.4-3.1 3.3 0 1.8 1.2 3.3 3.1 3.3 1.9 0 3.1-1.4 3.1-3.3m11 5.7l-1.9-3.8H81v3.8h-2.9V8.1h5.7c2.5 0 3.9 1.7 3.9 3.8 0 2-1.2 3-2.3 3.4l2.3 4.2h-3.3zm.3-7.6c0-.8-.6-1.2-1.4-1.2H81v2.4h2.3c.8 0 1.4-.4 1.4-1.2m4.2 1.9c0-3.4 2.6-5.9 6.1-5.9 3.5 0 6.1 2.4 6.1 5.9 0 3.5-2.6 5.9-6.1 5.9-3.5 0-6.1-2.4-6.1-5.9m9.1 0c0-1.9-1.2-3.3-3.1-3.3-1.9 0-3.1 1.4-3.1 3.3 0 1.8 1.2 3.3 3.1 3.3 1.9 0 3.1-1.4 3.1-3.3m12.4 5.7v-4.6h-4.7v4.6h-3V8.1h3v4.3h4.7V8.1h2.9v11.4zm4.6-5.7c0-3.4 2.6-5.9 6.1-5.9 3.5 0 6.1 2.4 6.1 5.9 0 3.5-2.6 5.9-6.1 5.9-3.5 0-6.1-2.4-6.1-5.9m9.2 0c0-1.9-1.2-3.3-3.1-3.3-1.9 0-3.1 1.4-3.1 3.3 0 1.8 1.2 3.3 3.1 3.3 1.9 0 3.1-1.4 3.1-3.3m7.3 5.7l-4.3-11.4h3.3l2.8 8.2 2.8-8.2h3.3l-4.2 11.4zm-79.3 17V25.1H57c3.6 0 6.1 2.1 6.1 5.7 0 3.5-2.6 5.7-6.1 5.7h-4.8zm7.9-5.7c0-1.8-1.1-3.1-3.1-3.1h-1.9v6.2H57c2 0 3.1-1.4 3.1-3.1m4.7 5.7V25.1h8.3v2.6h-5.3v1.8H73V32h-5.2v1.9h5.3v2.6zm9.6-1.6l1.5-2.2c.8.8 2.1 1.5 3.6 1.5 1 0 1.6-.4 1.6-.9 0-1.5-6.4-.3-6.4-4.7 0-1.9 1.6-3.6 4.5-3.6 1.8 0 3.4.5 4.6 1.6l-1.6 2.1c-1-.8-2.2-1.2-3.3-1.2-.8 0-1.2.3-1.2.8 0 1.4 6.4.4 6.4 4.6 0 2.3-1.7 3.8-4.7 3.8-2.2 0-3.8-.7-5-1.8m11.5-9.8h2.9v11.3h-2.9zm4.7 5.7c0-3.6 2.8-5.9 6.1-5.9 2.5 0 4.1 1.3 4.8 2.8L99.1 29c-.4-.7-1.3-1.4-2.4-1.4-1.9 0-3.2 1.4-3.2 3.3s1.3 3.3 3.2 3.3c.8 0 1.7-.3 2.1-.7v-.9h-2.6V30h5.5v4.5c-1.2 1.3-2.9 2.2-5 2.2-3.4 0-6.1-2.3-6.1-5.9m20.9 5.7l-4.8-6.6v6.6h-2.9V25.1h3l4.6 6.3v-6.3h2.9v11.4zM17.7 0H0v44.7h17.8c15 0 24.6-8.8 24.6-22.4C42.4 8.7 32.7 0 17.7 0m-.4 35.7h-8V9.5h8c9.3 0 15.7 3.7 15.7 12.7.1 7.5-5.8 13.5-15.7 13.5"/><path d="M19.1 17H17v10.6h2c4 0 6.4-2.4 6.4-5.4 0-3.7-2.6-5.2-6.3-5.2"/></symbol><symbol viewBox="0 0 124.099 124.1" id="email"><path d="M18.25 106.7c5.6 5.399 12.3 9.8 20.1 12.8 7.8 3 16.5 4.6 25.9 4.6 10.5 0 20.2-1.6 28.9-4.899 7.9-2.9 1.1-17.601-4.7-15.2-6.399 2.7-14.2 4.1-23.101 4.1-7 0-13.399-1.1-19-3.199-5.6-2.101-10.5-5.101-14.5-9-4-3.9-7.2-8.7-9.4-14.2-2.3-5.601-3.4-12-3.4-19 0-6.6 1.1-12.9 3.3-18.5 2.2-5.6 5.2-10.6 9.2-14.6 3.9-4.1 8.7-7.4 14.2-9.7 5.5-2.3 11.7-3.5 18.5-3.5 6.301 0 12.1.9 17.301 2.5 5.1 1.6 9.5 4.1 13.199 7.4 3.7 3.3 6.6 7.3 8.7 12.1 2.101 4.8 3.101 10.4 3.101 16.8 0 3.7-.4 7.2-1.201 10.5-.799 3.1-1.799 5.899-3.199 8.1-1.301 2.101-2.801 3.8-4.6 5-2.101 1.4-5.201 2.2-7.601 1.4-3-1-2.399-5.2-2.2-7.7.301-3.4 1.2-6.6 1.9-9.9 1.1-5.4 2.3-10.7 3.4-16 .6-2.9 1.299-5.9 1.899-8.8.8-3.7-2-7.3-5.899-7.3h-4.4c-2.7 0-5.1 1.8-5.801 4.4-.299 1.2-.6 2.2-.6 2.2-2.199-6.8-10.3-8.7-16.7-8.6-8.4.1-16.1 4.4-21.7 10.5-.5.6-1.1 1.2-1.6 1.8-2.9 3.5-5.1 7.6-6.6 11.9-1.6 4.6-2.4 9.3-2.4 14.1 0 4.101.6 8 1.7 11.5 1.2 3.601 2.9 6.7 5.1 9.3 2.2 2.601 5 4.7 8.3 6.2 3.3 1.5 7 2.3 11 2.3 3 0 5.8-.5 8.3-1.399 2.4-.9 4.6-2 6.5-3.3 1.5-1 2.9-2.2 4-3.301.699 1.301 1.5 2.4 2.6 3.5 2.801 3 7.1 4.5 12.801 4.5 4.5 0 8.899-.899 13-2.699 4.1-1.801 7.799-4.601 10.899-8.2 3-3.601 5.5-8 7.3-13.2 1.801-5.2 2.7-11.2 2.7-17.8 0-9-1.7-17-5-23.7s-7.8-12.4-13.399-16.9c-5.5-4.5-11.9-7.8-19-10.1C79.05 1.1 71.75 0 64.25 0c-8.7 0-17 1.6-24.7 4.7-7.7 3.2-14.5 7.6-20.2 13.1-5.8 5.5-10.4 12.2-13.7 19.7-3.3 7.5-5 15.9-5 24.7 0 8.899 1.5 17.3 4.6 24.8 3 7.6 7.4 14.2 13 19.7zm54.099-42c-.699 2.7-1.699 5.3-3.1 7.7-1.4 2.3-3.1 4.199-5.3 5.699-2 1.4-4.4 2.101-7.4 2.101-1.9 0-3.4-.4-4.5-1.101-1.2-.8-2.2-1.8-2.9-3.1-.8-1.4-1.3-2.9-1.6-4.4-.3-1.6-.5-3.1-.5-4.399 0-2.8.4-5.6 1.2-8.5.8-2.8 1.9-5.4 3.4-7.6 1.5-2.2 3.2-4 5.3-5.4 1.9-1.3 4-1.9 6.5-1.9 2 0 3.601.3 4.8 1 1.2.7 2.2 1.6 2.9 2.7.8 1.2 1.3 2.6 1.699 4.1.4 1.7.601 3.5.601 5.2-.1 2.5-.399 5.1-1.1 7.9z"/></symbol><symbol viewBox="0 0 96.124 96.123" id="fb"><path d="M72.089.02L59.624 0C45.62 0 36.57 9.285 36.57 23.656v10.907H24.037a1.96 1.96 0 0 0-1.96 1.961v15.803a1.96 1.96 0 0 0 1.96 1.96H36.57v39.876a1.96 1.96 0 0 0 1.96 1.96h16.352a1.96 1.96 0 0 0 1.96-1.96V54.287h14.654a1.96 1.96 0 0 0 1.96-1.96l.006-15.803a1.963 1.963 0 0 0-1.961-1.961H56.842v-9.246c0-4.444 1.059-6.7 6.848-6.7l8.397-.003a1.96 1.96 0 0 0 1.959-1.96V1.98A1.96 1.96 0 0 0 72.089.02z"/></symbol><symbol viewBox="0 0 45 45" id="icon-download"><path d="M22.5 0C10.1 0 0 10.1 0 22.5S10.1 45 22.5 45 45 34.9 45 22.5 34.9 0 22.5 0zm8.1 24l-7.8 9.3c-.1.1-.2.2-.3.2-.1 0-.2-.1-.3-.2L14.4 24c-.1-.1-.1-.3-.1-.5.1-.1.2-.2.4-.2h3.6L20 12.7c.1-.7.7-1.2 1.4-1.2h2.1c.7 0 1.3.5 1.4 1.2l1.8 10.7h3.6c.2 0 .3.1.4.2.1.1.1.3-.1.4z"/></symbol><symbol viewBox="0 0 2558.9 2559" id="logotip"><g fill="#FFF"><path d="M434.8 1715h88.6l-45.5-160.7zm1425.8-46.7c-1.2-3.2-3.1-6.8-5.6-11-2.6-4.1-6-7.9-10.4-11.5-4.3-3.5-9.7-6.5-16.2-8.8-6.5-2.4-14.1-3.6-22.8-3.6-3.2 0-7.3.3-12.4.9-5.1.6-10.3 2.1-15.6 4.4-5.3 2.4-10.7 6.1-16 11-5.3 4.9-9.7 11.5-13.2 19.7-1.6 2.8-2.7 5-3.3 6.9-.6 1.7-1.4 5-2.7 9.7h122.3c-.4-2.8-.9-5.6-1.4-8.6-.6-2.9-1.6-5.9-2.7-9.1zm313-17.7c-2.8-2-7.1-4.6-13-7.9-6-3.4-13.6-5.1-23.2-5.1-7.9 0-15.6 1.8-23.1 5.1-7.5 3.3-14.2 8.5-19.9 15.6-5.8 7.1-10.4 16.2-14 27.5-3.6 11.2-5.3 24.7-5.3 40.4 0 4.7.2 10 .6 15.7.3 5.6.9 10.8 1.7 15.1 3.2 16.5 9.4 30.4 18.7 41.7 9.3 11.2 23.1 16.8 41.2 16.8 11.9-.4 21-2.5 27.3-6.3 6.4-3.7 11.1-7.6 14.3-11.5 8.7-9.9 14.1-21.3 16-34.6 2-13.2 3-25.9 3-38.1-.3-20.9-2.6-36.8-6.5-47.9-3.9-11-9.9-19.9-17.8-26.5z"/><path d="M1279.5 0C572.8 0 0 572.8 0 1279.5 0 1986.1 572.8 2559 1279.5 2559S2559 1986.2 2559 1279.5C2558.9 572.8 1986.1 0 1279.5 0zm526.2 1314c2.4-54.7 31.9-202.9 182.4-278.1 150.4-75.1 262.9-92.7 402.7-94.1 0 0-139.8 209.6-191.5 340.3-51.6 130.7-188.3 179.3-370.7 182.4l15.2-21.2 115.4-9.1-100.3-9.1 48.6-54.7s100.3-33.4 227.9-60.8l-94.2 6.1 121.5-57.8-224.8 82.1 171.7-173.6 35.6-15.4 117.8-51.1-117.7 36.5L2339 976.8s-104.9 38-303.1 226.5c0 0 67.6-128.5 73.7-190 0 0-71.4 168.7-114.7 218.9-43.3 50.1-141.3 148.2-141.3 148.2s31.9-121.6 29.7-177c0 0-29.7 140.5-54.7 186-25.1 45.6-43.4 61.6-43.4 61.6s18.2-82.3 20.5-137zM573.6 1879.8l-27.2-88.6H412.9l-26.6 88.6H281.7l141.8-417.2h106.9l148.3 417.2H573.6zm257 3c-6.7.4-13.4.7-20.3.9-6.9.1-14 .3-21 .3-8.3 0-16.6-.5-24.9-1.5-8.4-.9-16.2-3-23.5-6.2-7.4-3.2-13.9-7.5-19.4-13-5.5-5.5-9.9-12.8-13-21.9-2-6.3-3.2-12.7-3.6-19.2-.4-6.6-.8-12.9-1.2-19.2l3-340.4h88.6l-3.6 326.8c.4 3.6.8 6.8 1.2 9.4.4 2.8 1.9 5.5 4.7 8.3 3.2 3.6 7.3 5.5 12.4 6 5.1.4 12.2.5 21.3.5l-.7 69.2zm147.8 0c-6.7.4-13.6.7-20.4.9-6.9.1-13.9.3-20.9.3-8.4 0-16.7-.5-25-1.5-8.3-.9-16.2-3-23.5-6.2-7.3-3.2-13.8-7.5-19.3-13-5.6-5.5-10-12.8-13.1-21.9-1.9-6.3-3.2-12.7-3.5-19.2-.4-6.6-.8-12.9-1.2-19.2l3-340.4h88.6l-3.5 326.8c.4 3.6.8 6.8 1.1 9.4.4 2.8 2 5.5 4.8 8.3 3.1 3.6 7.2 5.5 12.4 6 5.1.4 12.2.5 21.3.5l-.8 69.2zM1311 1540h-212.7v89.9H1285v75h-186.7v174.9h-94v-417.2H1311v77.4zm313.2 212.3h-214.5c.4 1.9.8 4.4 1.2 7.4.4 2.9 1.3 6.6 2.9 10.9.4 1.9 1.3 4.6 2.7 8 1.4 3.3 3.3 7.1 5.9 11.2 2.6 4.1 5.9 8.2 9.8 12.1 3.9 4 8.7 7.3 14.2 10.1 3.2 1.2 7.1 2.5 11.8 3.8 4.8 1.4 10.9 2.2 18.4 2.2 13.7 0 24.4-2.3 31.9-6.9 7.5-4.5 13-8.9 16.5-13.2 2-2.4 3.7-4.8 5.3-7.4 1.5-2.6 2.6-4.2 3-5l87.4 6c-.8 1.9-1.7 4.8-2.7 8.5-1 3.8-2.7 7.8-5 12.1-1.6 2.8-3.8 6.5-6.8 11s-6.7 9.4-11 14.8c-4.3 5.2-9.5 10.6-15.6 15.9-6.2 5.3-12.9 10.2-20.4 14.5-8.7 4.7-17.5 8.5-26.3 11.2-8.9 2.8-17.3 4.9-25.5 6.3-8.1 1.3-15.2 2.3-21.2 2.7-6.2.4-10.6.6-13.3.6-5.1 0-12.1-.4-20.9-1.2-8.9-.8-18.6-2.8-29.2-5.9-10.7-3.2-21.7-8-33.1-14.5-11.4-6.6-22.3-15.5-32.5-27-4-4.3-8.2-9.9-12.7-16.8s-8.7-15.1-12.4-24.5c-3.8-9.4-6.9-20.1-9.4-32.1-2.6-12-3.8-25.3-3.8-39.9 0-4.7.3-11.4.9-20.1.6-8.6 2.3-18.2 5-28.6 2.8-10.5 6.9-21.3 12.4-32.8 5.5-11.4 13.2-22.5 23-33 4.4-4.7 9.9-9.9 16.6-15.4 6.7-5.4 14.7-10.6 23.9-15.3 9.2-4.8 20.1-8.7 32.5-11.9 12.4-3.1 26.5-4.7 42.2-4.7 4.8 0 11 .3 18.7.9 7.6.6 16.2 2.3 25.7 5 9.4 2.8 19.2 6.8 29.2 12.1 10.1 5.3 19.8 12.9 29.3 22.8 12.2 12.9 21.6 27.1 28.1 42.2 6.5 15.2 11.1 29.8 13.8 43.7 2.8 14.1 4.2 26.6 4.2 37.6-.2 10.4-.2 18.1-.2 22.6zm-24.9-435.4s-171.4-171.4-247.1-259c-75.7-87.7-200.5-382.6-200.5-382.6 10.6 107.6 128.8 332.1 128.8 332.1-346.7-329.4-530-395.9-530-395.9l338.7 279-205.9-63.7 206.1 89.2 62.3 27 300.2 303.6-393.2-143.5 212.6 101-164.8-10.6c223.2 47.8 398.6 106.2 398.6 106.2l85 95.6-175.3 15.9 201.9 16 26.6 37.2c-318.8-5.2-557.9-90.3-648.2-318.7-90.3-228.5-334.8-595.2-334.8-595.2 244.4 2.7 441.1 33.3 704.1 164.7 263 131.5 314.8 390.6 318.8 486.2 4 95.6 35.9 239.1 35.9 239.1s-31.9-27.9-75.7-107.5c-43.8-79.8-95.6-325.5-95.6-325.5-4.2 96.9 51.5 309.4 51.5 309.4zm357.1 435.4h-214.6c.4 1.9.8 4.4 1.2 7.4.4 2.9 1.3 6.6 3 10.9.4 1.9 1.2 4.6 2.7 8 1.3 3.3 3.3 7.1 5.9 11.2 2.6 4.1 5.8 8.2 9.7 12.1 3.9 4 8.7 7.3 14.2 10.1 3.2 1.2 7.2 2.5 11.9 3.8 4.7 1.4 10.8 2.2 18.3 2.2 13.8 0 24.4-2.3 31.9-6.9 7.5-4.5 13-8.9 16.5-13.2 2-2.4 3.8-4.8 5.3-7.4 1.5-2.6 2.6-4.2 3-5l87.4 6c-.8 1.9-1.6 4.8-2.7 8.5-1 3.8-2.7 7.8-5 12.1-1.5 2.8-3.8 6.5-6.8 11s-6.6 9.4-11 14.8c-4.3 5.2-9.5 10.6-15.6 15.9-6.2 5.3-12.9 10.2-20.4 14.5-8.6 4.7-17.4 8.5-26.3 11.2-8.8 2.8-17.3 4.9-25.5 6.3-8 1.3-15.2 2.3-21.2 2.7-6.1.4-10.6.6-13.2.6-5.1 0-12.2-.4-21-1.2-8.8-.8-18.6-2.8-29.3-5.9-10.7-3.2-21.6-8-33-14.5-11.5-6.6-22.3-15.5-32.5-27-4-4.3-8.2-9.9-12.7-16.8s-8.7-15.1-12.4-24.5-6.9-20.1-9.4-32.1c-2.6-12-3.8-25.3-3.8-39.9 0-4.7.3-11.4.9-20.1.6-8.6 2.3-18.2 5-28.6 2.8-10.5 6.9-21.3 12.4-32.8 5.5-11.4 13.2-22.5 23-33 4.4-4.7 9.9-9.9 16.6-15.4 6.7-5.4 14.7-10.6 23.9-15.3 9.2-4.8 20.1-8.7 32.5-11.9 12.4-3.1 26.5-4.7 42.2-4.7 4.8 0 11 .3 18.7.9 7.7.6 16.2 2.3 25.7 5 9.4 2.8 19.3 6.8 29.3 12.1 10.1 5.3 19.8 12.9 29.2 22.8 12.2 12.9 21.7 27.1 28.1 42.2 6.5 15.2 11.1 29.8 13.9 43.7 2.8 14.1 4.2 26.6 4.2 37.6-.2 10.4-.2 18.1-.2 22.6zm326.6 127.5h-84.5v-28.9c-1.9 2.3-3.7 4.6-5.3 6.8-1.5 2.3-3.3 4.3-5.2 6.3-5.5 4.7-14.1 9.9-25.5 15.3-11.4 5.5-26.4 8.3-44.8 8.3-15.4 0-28.1-1.8-38.2-5.5-10.1-3.8-17.9-7.3-23.3-10.4-7.5-4.4-15.3-10.4-23.4-18.1-8.1-7.7-15.5-17.3-22.5-28.9-6.9-11.6-12.5-25.5-16.8-41.4-4.3-16-6.5-34.4-6.5-55.2 0-22.5 3.2-44.6 9.4-66.5 6.3-21.9 17.7-41.2 34.3-58.2 8.6-8.7 17.5-15.6 26.6-20.7 9-5.1 17.7-8.8 25.8-11.2 8-2.5 15.5-3.9 22.4-4.5 7-.5 12.7-.8 17.5-.8 7.1 0 13.4.5 19 1.4 5.4 1 11.6 2.9 18.3 5.6 2.4.8 4.9 1.8 7.7 3 2.7 1.1 5.3 2.4 7.7 3.5 2.7 2 6.1 4.4 10 7.1 4 2.8 7.2 5.1 9.5 7.1v-131.1h87.9v417z"/><path d="M1528.5 1668.3c-1.2-3.2-3-6.8-5.6-11-2.6-4.1-6.1-7.9-10.4-11.5-4.3-3.5-9.7-6.5-16.2-8.8-6.6-2.4-14.1-3.6-22.8-3.6-3.2 0-7.3.3-12.4.9-5.1.6-10.4 2.1-15.6 4.4-5.3 2.4-10.7 6.1-16 11-5.3 4.9-9.7 11.5-13.3 19.7-1.6 2.8-2.6 5-3.2 6.9-.6 1.7-1.5 5-2.7 9.7h122.3c-.4-2.8-.9-5.6-1.5-8.6s-1.4-5.9-2.6-9.1z"/></g></symbol><symbol viewBox="0 0 54 54" id="map-location"><path d="M26.7 0C16 .4 7.1 8.8 6.1 19.4c-.2 2.1-.1 4.2.3 6.2 0 0 0 .2.1.7.3 1.5.8 2.9 1.5 4.3 2.2 5.1 7.2 13.7 18.4 23 .7.6 1.7.6 2.4 0C40 44.3 45 35.7 47.2 30.6c.6-1.4 1.1-2.8 1.5-4.3.1-.4.1-.7.1-.7.3-1.3.4-2.7.4-4.1C49 9.4 39-.4 26.7 0zm.8 32.3c-5.8 0-10.5-4.7-10.5-10.5s4.7-10.5 10.5-10.5S38 16 38 21.8s-4.7 10.5-10.5 10.5z"/></symbol><symbol viewBox="0 0 371.23 371.23" id="modal-close"><path d="M371.23 21.213L350.018 0 185.615 164.402 21.213 0 0 21.213l164.402 164.402L0 350.018l21.213 21.212 164.402-164.402L350.018 371.23l21.212-21.212-164.402-164.403z"/></symbol><symbol viewBox="0 0 95.481 95.481" id="ok"><path d="M43.041 67.254c-7.402-.772-14.076-2.595-19.79-7.064-.709-.556-1.441-1.092-2.088-1.713-2.501-2.402-2.753-5.153-.774-7.988 1.693-2.426 4.535-3.075 7.489-1.682.572.27 1.117.607 1.639.969 10.649 7.317 25.278 7.519 35.967.329 1.059-.812 2.191-1.474 3.503-1.812 2.551-.655 4.93.282 6.299 2.514 1.564 2.549 1.544 5.037-.383 7.016-2.956 3.034-6.511 5.229-10.461 6.761-3.735 1.448-7.826 2.177-11.875 2.661.611.665.899.992 1.281 1.376 5.498 5.524 11.02 11.025 16.5 16.566 1.867 1.888 2.257 4.229 1.229 6.425-1.124 2.4-3.64 3.979-6.107 3.81-1.563-.108-2.782-.886-3.865-1.977-4.149-4.175-8.376-8.273-12.441-12.527-1.183-1.237-1.752-1.003-2.796.071-4.174 4.297-8.416 8.528-12.683 12.735-1.916 1.889-4.196 2.229-6.418 1.15-2.362-1.145-3.865-3.556-3.749-5.979.08-1.639.886-2.891 2.011-4.014 5.441-5.433 10.867-10.88 16.295-16.322.359-.362.694-.746 1.217-1.305z"/><path d="M47.55 48.329c-13.205-.045-24.033-10.992-23.956-24.218C23.67 10.739 34.505-.037 47.84 0c13.362.036 24.087 10.967 24.02 24.478-.068 13.199-10.971 23.897-24.31 23.851zm12.001-24.186c-.023-6.567-5.253-11.795-11.807-11.801-6.609-.007-11.886 5.316-11.835 11.943.049 6.542 5.324 11.733 11.896 11.709 6.552-.023 11.768-5.285 11.746-11.851z"/></symbol><symbol viewBox="51 -52.2 477.2 477.2" id="owl-next"><path d="M167.6 401.9c-5.3 5.3-5.3 13.8 0 19.1 2.6 2.7 6.1 4 9.5 4s6.9-1.4 9.5-4l225.1-225c5.3-5.3 5.3-13.8 0-19.1L186.6-48.2c-5.3-5.3-13.8-5.3-19.1 0s-5.3 13.8 0 19.1L383 186.4 167.6 401.9z"/></symbol><symbol viewBox="0 0 477.175 477.175" id="owl-prev"><path d="M145.188 238.575l215.5-215.5c5.3-5.3 5.3-13.8 0-19.1s-13.8-5.3-19.1 0l-225.1 225.1c-5.3 5.3-5.3 13.8 0 19.1l225.1 225c2.6 2.6 6.1 4 9.5 4s6.9-1.3 9.5-4c5.3-5.3 5.3-13.8 0-19.1l-215.4-215.5z"/></symbol><symbol viewBox="0 0 480.56 480.56" id="tel"><path d="M365.354 317.9c-15.7-15.5-35.3-15.5-50.9 0-11.9 11.8-23.8 23.6-35.5 35.6-3.2 3.3-5.9 4-9.8 1.8-7.7-4.2-15.9-7.6-23.3-12.2-34.5-21.7-63.4-49.6-89-81-12.7-15.6-24-32.3-31.9-51.1-1.6-3.8-1.3-6.3 1.8-9.4 11.9-11.5 23.5-23.3 35.2-35.1 16.3-16.4 16.3-35.6-.1-52.1-9.3-9.4-18.6-18.6-27.9-28-9.6-9.6-19.1-19.3-28.8-28.8-15.7-15.3-35.3-15.3-50.9.1-12 11.8-23.5 23.9-35.7 35.5-11.3 10.7-17 23.8-18.2 39.1-1.9 24.9 4.2 48.4 12.8 71.3 17.6 47.4 44.4 89.5 76.9 128.1 43.9 52.2 96.3 93.5 157.6 123.3 27.6 13.4 56.2 23.7 87.3 25.4 21.4 1.2 40-4.2 54.9-20.9 10.2-11.4 21.7-21.8 32.5-32.7 16-16.2 16.1-35.8.2-51.8-19-19.1-38.1-38.1-57.2-57.1zm-19.1-79.7l36.9-6.3c-5.8-33.9-21.8-64.6-46.1-89-25.7-25.7-58.2-41.9-94-46.9l-5.2 37.1c27.7 3.9 52.9 16.4 72.8 36.3 18.8 18.8 31.1 42.6 35.6 68.8zm57.7-160.4c-42.6-42.6-96.5-69.5-156-77.8l-5.2 37.1c51.4 7.2 98 30.5 134.8 67.2 34.9 34.9 57.8 79 66.1 127.5l36.9-6.3c-9.7-56.2-36.2-107.2-76.6-147.7z"/></symbol><symbol viewBox="0 0 612 612" id="tw"><path d="M612 116.258a250.714 250.714 0 0 1-72.088 19.772c25.929-15.527 45.777-40.155 55.184-69.411-24.322 14.379-51.169 24.82-79.775 30.48-22.907-24.437-55.49-39.658-91.63-39.658-69.334 0-125.551 56.217-125.551 125.513 0 9.828 1.109 19.427 3.251 28.606-104.326-5.24-196.835-55.223-258.75-131.174-10.823 18.51-16.98 40.078-16.98 63.101 0 43.559 22.181 81.993 55.835 104.479a125.556 125.556 0 0 1-56.867-15.756v1.568c0 60.806 43.291 111.554 100.693 123.104-10.517 2.83-21.607 4.398-33.08 4.398-8.107 0-15.947-.803-23.634-2.333 15.985 49.907 62.336 86.199 117.253 87.194-42.947 33.654-97.099 53.655-155.916 53.655-10.134 0-20.116-.612-29.944-1.721 55.567 35.681 121.536 56.485 192.438 56.485 230.948 0 357.188-191.291 357.188-357.188l-.421-16.253c24.666-17.593 46.005-39.697 62.794-64.861z"/></symbol><symbol viewBox="83.2 -144.4 669.9 548.4" id="vk"><path d="M180.3 204.2c-33.7-.8-73.9-25.3-89.4-49.8-20.3-32.1 4.1-72.6 17.4-94.1 63.2-101.9 212.6-167.9 358.4-176.9 47.5-2.9 131.6-7.1 204.6 36.1 17.3 10.3 60.1 42.7 78.9 90.7 28.3 72.3-157.1 88.5-151.1 116.6 2.9 13.5 46.6-5 60.8-6 114.1-8.3 85.8 46.8 75.6 65.2-32.8 58.8-233.2 160.4-363.5 182-60.5 10-173.1 20.4-206.8-11.8-20.4-19.6-27.7-58-11.6-81.3 27.1-39.2 47.6-48.2 144.4-90.1 38.6-16.7 126.8-43.7 120.7-61.8-8.5-25.5-154.6 83.1-238.4 81.2z"/><path fill="#F6EDDB" d="M689.5 255.9c-.7-1.4-1.3-2.6-1.9-3.6-9.5-17.1-27.7-38.2-54.5-63.1l-.6-.6-.3-.3-.3-.3h-.3c-12.2-11.6-19.9-19.4-23.1-23.4-5.9-7.6-7.2-15.3-4-23.1 2.3-5.9 10.9-18.4 25.7-37.4 7.8-10.1 14-18.2 18.6-24.3C681.7 36.1 696 8.2 691.6-4l-1.7-2.8c-1.1-1.7-4.1-3.3-8.8-4.7-4.8-1.4-10.9-1.7-18.3-.7l-82.2.6c-1.3-.5-3.2-.4-5.7.1-2.5.6-3.7.9-3.7.9l-1.4.7-1.1.9c-1 .6-2 1.6-3.1 3s-2.1 3.1-2.8 5c-9 23-19.1 44.4-30.6 64.2-7 11.8-13.5 22-19.4 30.7-5.9 8.7-10.8 15-14.8 19.1-4 4.1-7.6 7.4-10.9 9.8-3.2 2.5-5.7 3.5-7.4 3.1-1.7-.4-3.3-.8-4.9-1.1-2.7-1.7-4.8-4-6.4-7-1.6-3-2.7-6.7-3.3-11.1-.6-4.5-.9-8.3-1-11.6-.1-3.2 0-7.8.1-13.7.2-5.9.3-9.9.3-12 0-7.2.1-15.1.4-23.6.3-8.5.5-15.2.7-20.1.2-4.9.3-10.2.3-15.7s-.3-9.8-1-13c-.7-3.1-1.7-6.2-3-9.1-1.3-3-3.3-5.2-5.9-6.9-2.6-1.6-5.8-2.9-9.6-3.9-10.1-2.3-22.9-3.5-38.5-3.7-35.4-.4-58.1 1.9-68.2 6.9-4 2.1-7.6 4.9-10.8 8.6-3.4 4.2-3.9 6.5-1.4 6.9 11.4 1.7 19.5 5.8 24.3 12.3l1.7 3.4c1.3 2.5 2.7 6.9 4 13.1 1.3 6.3 2.2 13.2 2.6 20.8 1 13.9 1 25.8 0 35.7-1 9.9-1.9 17.6-2.7 23.1-.9 5.5-2.1 10-3.9 13.4-1.7 3.4-2.9 5.5-3.4 6.3-.6.8-1 1.2-1.4 1.4-2.5.9-5 1.4-7.7 1.4s-5.9-1.3-9.7-4c-3.8-2.7-7.8-6.3-11.8-11-4.1-4.7-8.7-11.2-13.8-19.6-5.1-8.4-10.5-18.3-16-29.7l-4.6-8.3c-2.9-5.3-6.8-13.1-11.7-23.3-5-10.2-9.3-20-13.1-29.6-1.5-4-3.8-7-6.9-9.1l-1.4-.9c-1-.8-2.5-1.6-4.6-2.4-2.1-.9-4.3-1.5-6.6-1.9l-78.2.6c-8 0-13.4 1.8-16.3 5.4l-1.1 1.7c-.6 1-.9 2.5-.9 4.6 0 2.1.6 4.7 1.7 7.7 11.1 27.1 23.6 52.9 37 77.9 13.4 24.9 25.1 45 35 60.2 9.9 15.2 20 29.6 30.3 43.1s17.1 22.2 20.4 26c3.3 3.8 6 6.7 7.9 8.6l7.1 6.9c4.6 4.6 11.3 10 20.1 16.4 8.9 6.4 18.7 12.7 29.4 18.8 10.8 6.2 23.3 11.2 37.5 15.1 14.3 3.9 28.2 5.5 41.7 4.7h32.8c6.7-.6 11.7-2.7 15.1-6.3l1.1-1.4c.8-1.1 1.5-2.9 2.1-5.3.7-2.4 1-5 1-7.9-.2-8.2.4-15.6 1.9-22.1 1.4-6.6 3-11.5 4.9-14.8 1.8-3.3 3.9-6.1 6.1-8.4 2.3-2.3 3.9-3.7 4.9-4.1.9-.5 1.7-.8 2.3-1 4.6-1.5 9.9 0 16.1 4.4 6.2 4.5 12 10 17.4 16.6 5.4 6.6 11.9 13.9 19.6 22.1 7.6 8.2 14.3 14.3 20 18.3l5.7 3.4c3.8 2.3 8.8 4.4 14.9 6.3 6.1 1.9 11.4 2.4 16 1.4l73.1-1.1c7.2 0 12.9-1.2 16.8-3.6 4-2.4 6.4-5 7.1-7.9.8-2.9.8-6.1.1-9.7-.6-3.6-1.3-6.1-1.9-7.6z"/></symbol></svg>