<svg version="1" xmlns="http://www.w3.org/2000/svg" width="346.667" height="346.667" viewBox="0 0 260.000000 260.000000"><path d="M113.4 1C69.4 7.2 31.8 34.4 13 73.6 4 92.4.5 108 .5 130.5c.1 18.4 2.2 30.5 8.1 45.9 14.4 37.4 46.5 67.2 84.2 78.2 72.9 21.2 147.3-22.5 164.3-96.6 2.8-12.2 3.5-33.8 1.6-46.5-4.6-29.7-17.2-54.1-38.5-74.7-18.6-18-39.5-29.1-64.7-34.3C146.3.6 122.3-.3 113.4 1zM96 58.6c17.9 2.8 43.3 13 53.3 21.3 14 11.7 19.5 23.9 22.6 50.1.6 5.2 1.4 10.8 1.7 12.5l.6 3-2.1-2.5c-4-4.8-8.1-14.6-11.1-26.4-3.1-12.2-4-14.6-4-10.8 0 2 2.9 18 4.5 24.7.6 2.5-1.4.8-11.1-9.4-6.6-6.8-13.4-14.5-15.2-17-3.4-4.7-12.3-21.9-15.6-30.1-1-2.5-2-4-2.3-3.4-.5 1.4 4.7 15.5 8.6 23.3 1.7 3.3 3.1 6.3 3.1 6.7 0 .3-2.8-2-6.2-5.1-8-7.4-22.7-19.1-30.3-24.2-8.6-5.7-15.5-9.5-15.4-8.6 0 .4 7 6.4 15.5 13.3 8.6 6.9 15.8 12.8 16 13.2.2.3-3.2-.5-7.7-1.8-4.4-1.4-8.2-2.4-8.4-2.2-.2.2 5.4 2.7 12.3 5.7l12.7 5.4 14.5 14.9 14.5 14.9-11-4c-6-2.1-14-5.1-17.8-6.5-9.7-3.7-9.5-3.1.8 2l9 4.4-6.3-.5c-7.1-.5-7.7.9-.7 1.9 2.5.4 10.7 2.5 18.3 4.6 13.3 3.8 13.8 4 18 8.7l4.3 4.8-8.3 1-8.3.9 9.5.9c8.6.8 13.5 2.5 11.9 4.2-1 .9-20.6-1.5-28.5-3.5-10.5-2.7-19.9-7.6-25.9-13.5-4.2-4.1-6.8-8.4-14.8-24.5-5.3-10.7-13.9-26.4-19.2-34.9-5.2-8.5-9.5-15.6-9.5-15.9 0-.7 17.5.7 28 2.4zm145.8 38.1c-.1.5-3.4 6-7.2 12.3-3.8 6.3-8.6 15.1-10.6 19.5-3.8 8.3-7.2 12.1-13.9 15.4-6 3-23.1 6-23.1 4.1 0-.6 1.5-1 3.3-1.1 1.7 0 4.1-.4 5.2-.9 1.6-.7 1.3-.9-1.7-.9-7.6-.2-2.3-5.1 8.7-8.1 4.4-1.2 9.1-2.6 10.5-3 2.5-.8 2.4-.8-.5-.9-2.9-.1-2.9-.2 1.3-2.1 6-2.7 5.2-3.4-1-.9-2.9 1.1-7.5 2.9-10.3 4l-4.9 1.9 8.9-9c7.1-7.2 10-9.3 14.7-11.1 6.2-2.3 8.9-4.4 3.9-2.9-1.7.5-3.5 1.1-4.1 1.5-.5.3-1 .3-1-.2.1-.4 3.9-3.7 8.5-7.3 4.6-3.6 8.4-6.9 8.5-7.3.1-1.9-16.8 10.1-24.7 17.7-2.4 2.2-4.3 3.8-4.3 3.4 0-.3 1.4-3.5 3-7.1 4.9-10.9 3.4-11-1.9-.2-3.7 7.4-6.8 12-12.1 17.8-4 4.3-7.4 7.6-7.7 7.3-.2-.2 0-2.1.5-4.2 1.7-6.7 2.2-10.5 1.4-10-.5.3-1.4 3.1-2.2 6.3-1.2 5.5-5.7 15.9-6.5 15.1-1.2-1.1 2.7-21.3 4.9-25.6 5.6-11.1 19.1-19.1 38.1-22.7 7.8-1.5 16.8-1.9 16.3-.8zM57.1 157.5c1.5 4.4 4.7 13.7 7.2 20.7l4.6 12.8H58.2l-1.1-4.5-1.2-4.6-7.1.3-7.1.3-1.1 4c-1.1 4-1.2 4-6.5 4.3-4.1.2-5.2 0-4.9-1 .3-.7 3.6-10.2 7.3-21.1l6.8-19.8 5.5.3 5.5.3 2.8 8zm23.7 8.6c-.6 16.2-.5 17.2 1.3 17.6 1.4.4 1.9 1.4 1.9 3.9 0 3.3-.1 3.4-4.2 3.4-7.6 0-7.8-.6-7.8-22.7V149h9.3l-.5 17.1zm14.9 0c-.5 16.3-.5 17.1 1.4 17.6 1.4.4 1.9 1.4 1.9 3.9 0 3.3-.1 3.4-4.2 3.4-7.6 0-7.8-.6-7.8-22.7V149h9.3l-.6 17.1zm37.3-13.6v3.4l-10.7.3-10.6.3v9l9.4.3 9.5.3-.4 3.4-.4 3.4-9 .3-9 .3-.2 8.5-.1 8.5-4.7.3-4.8.3V149h31v3.5zm99 17.5v21h-3.9c-2.2 0-4.1-.5-4.3-1-.2-.7-1.7-.5-4.3.6-10.4 4.3-19.1-5.5-17-19.4 1.3-8.7 10.4-14.4 17.4-10.9l3.1 1.5V149h9v21zm-74.2-8.3c4.1 3.1 6.1 6.5 6.8 11.5l.7 4.8h-11.2c-7 0-11.1.4-11.1 1 0 2 4.9 6 7.3 6 1.4 0 3-.7 3.7-1.5 1.7-2 10-2.1 10-.1 0 .8-1.6 2.8-3.5 4.4-6.6 5.8-16.6 5.2-22.4-1.3-7.2-8.2-4-22.3 5.9-26.4 3.5-1.5 10.8-.7 13.8 1.6zm34.1 0c3.4 2.6 5.7 6.8 6.6 12l.7 4.3h-11.1c-12 0-13 .6-9.1 4.8 2.4 2.5 5.8 2.8 8.6.7 2-1.5 10.4-2.1 10.4-.7 0 2-3.7 5.6-7.4 7.3-5.2 2.4-9 2.3-14.4-.1-8.9-4-11-18.1-3.9-25.9 4.9-5.3 14.1-6.4 19.6-2.4z"/><path d="M46.3 166.2l-2 7.3 4 .3c2.1.2 4.1.1 4.4-.1.6-.6-2.7-12.9-3.7-14-.4-.5-1.6 2.4-2.7 6.5zM213.1 168.6c-1.5 1.9-2.1 4.1-2.1 7.5 0 4 .4 5.1 2.7 6.8 5.1 4.1 9.3.6 9.3-7.6 0-8.5-5.5-12.2-9.9-6.7zM146.2 166.6c-.7.3-1.7 1.4-2.2 2.5-1 1.8-.7 1.9 5.6 1.9h6.6l-1.4-2.3c-1.5-2.1-5.8-3.2-8.6-2.1zM179.3 167.2c-2.8 3.6-2.6 3.8 4.3 3.8h6.6l-1.4-2.3c-1.8-2.6-7.9-3.6-9.5-1.5z"/></svg>