<?xml version="1.0" encoding="utf-8"?>
<!-- Generator: Adobe Illustrator 19.0.0, SVG Export Plug-In . SVG Version: 6.00 Build 0)  -->
<svg version="1.1" id="Слой_1" xmlns="http://www.w3.org/2000/svg" xmlns:xlink="http://www.w3.org/1999/xlink" x="0px" y="0px"
	 viewBox="0 0 2558.9 2559" enable-background="new 0 0 2558.9 2559" xml:space="preserve">
<g>
	<polygon fill="#FFFFFF" points="434.8,1715 523.4,1715 477.9,1554.3 	"/>
	<path fill="#FFFFFF" d="M1860.6,1668.3c-1.2-3.2-3.1-6.8-5.6-11c-2.6-4.1-6-7.9-10.4-11.5c-4.3-3.5-9.7-6.5-16.2-8.8
		c-6.5-2.4-14.1-3.6-22.8-3.6c-3.2,0-7.3,0.3-12.4,0.9c-5.1,0.6-10.3,2.1-15.6,4.4c-5.3,2.4-10.7,6.1-16,11
		c-5.3,4.9-9.7,11.5-13.2,19.7c-1.6,2.8-2.7,5-3.3,6.9c-0.6,1.7-1.4,5-2.7,9.7h122.3c-0.4-2.8-0.9-5.6-1.4-8.6
		C1862.7,1674.5,1861.7,1671.5,1860.6,1668.3z"/>
	<path fill="#FFFFFF" d="M2173.6,1650.6c-2.8-2-7.1-4.6-13-7.9c-6-3.4-13.6-5.1-23.2-5.1c-7.9,0-15.6,1.8-23.1,5.1
		c-7.5,3.3-14.2,8.5-19.9,15.6c-5.8,7.1-10.4,16.2-14,27.5c-3.6,11.2-5.3,24.7-5.3,40.4c0,4.7,0.2,10,0.6,15.7
		c0.3,5.6,0.9,10.8,1.7,15.1c3.2,16.5,9.4,30.4,18.7,41.7c9.3,11.2,23.1,16.8,41.2,16.8c11.9-0.4,21-2.5,27.3-6.3
		c6.4-3.7,11.1-7.6,14.3-11.5c8.7-9.9,14.1-21.3,16-34.6c2-13.2,3-25.9,3-38.1c-0.3-20.9-2.6-36.8-6.5-47.9
		C2187.5,1666.1,2181.5,1657.2,2173.6,1650.6z"/>
	<path fill="#FFFFFF" d="M1279.5,0C572.8,0,0,572.8,0,1279.5C0,1986.1,572.8,2559,1279.5,2559s1279.5-572.8,1279.5-1279.5
		C2558.9,572.8,1986.1,0,1279.5,0z M1805.7,1314c2.4-54.7,31.9-202.9,182.4-278.1c150.4-75.1,262.9-92.7,402.7-94.1
		c0,0-139.8,209.6-191.5,340.3c-51.6,130.7-188.3,179.3-370.7,182.4l15.2-21.2l115.4-9.1l-100.3-9.1l48.6-54.7
		c0,0,100.3-33.4,227.9-60.8l-94.2,6.1l121.5-57.8l-224.8,82.1l171.7-173.6l35.6-15.4l117.8-51.1l-117.7,36.5l193.7-159.6
		c0,0-104.9,38-303.1,226.5c0,0,67.6-128.5,73.7-190c0,0-71.4,168.7-114.7,218.9c-43.3,50.1-141.3,148.2-141.3,148.2
		s31.9-121.6,29.7-177c0,0-29.7,140.5-54.7,186c-25.1,45.6-43.4,61.6-43.4,61.6S1803.4,1368.7,1805.7,1314z M573.6,1879.8
		l-27.2-88.6H412.9l-26.6,88.6H281.7l141.8-417.2h106.9l148.3,417.2H573.6z M830.6,1882.8c-6.7,0.4-13.4,0.7-20.3,0.9
		c-6.9,0.1-14,0.3-21,0.3c-8.3,0-16.6-0.5-24.9-1.5c-8.4-0.9-16.2-3-23.5-6.2c-7.4-3.2-13.9-7.5-19.4-13c-5.5-5.5-9.9-12.8-13-21.9
		c-2-6.3-3.2-12.7-3.6-19.2c-0.4-6.6-0.8-12.9-1.2-19.2l3-340.4h88.6l-3.6,326.8c0.4,3.6,0.8,6.8,1.2,9.4c0.4,2.8,1.9,5.5,4.7,8.3
		c3.2,3.6,7.3,5.5,12.4,6c5.1,0.4,12.2,0.5,21.3,0.5L830.6,1882.8z M978.4,1882.8c-6.7,0.4-13.6,0.7-20.4,0.9
		c-6.9,0.1-13.9,0.3-20.9,0.3c-8.4,0-16.7-0.5-25-1.5c-8.3-0.9-16.2-3-23.5-6.2c-7.3-3.2-13.8-7.5-19.3-13
		c-5.6-5.5-10-12.8-13.1-21.9c-1.9-6.3-3.2-12.7-3.5-19.2c-0.4-6.6-0.8-12.9-1.2-19.2l3-340.4h88.6l-3.5,326.8
		c0.4,3.6,0.8,6.8,1.1,9.4c0.4,2.8,2,5.5,4.8,8.3c3.1,3.6,7.2,5.5,12.4,6c5.1,0.4,12.2,0.5,21.3,0.5L978.4,1882.8z M1311,1540
		h-212.7v89.9H1285v75h-186.7v174.9h-94v-417.2H1311V1540z M1624.2,1752.3h-214.5c0.4,1.9,0.8,4.4,1.2,7.4c0.4,2.9,1.3,6.6,2.9,10.9
		c0.4,1.9,1.3,4.6,2.7,8c1.4,3.3,3.3,7.1,5.9,11.2c2.6,4.1,5.9,8.2,9.8,12.1c3.9,4,8.7,7.3,14.2,10.1c3.2,1.2,7.1,2.5,11.8,3.8
		c4.8,1.4,10.9,2.2,18.4,2.2c13.7,0,24.4-2.3,31.9-6.9c7.5-4.5,13-8.9,16.5-13.2c2-2.4,3.7-4.8,5.3-7.4c1.5-2.6,2.6-4.2,3-5l87.4,6
		c-0.8,1.9-1.7,4.8-2.7,8.5c-1,3.8-2.7,7.8-5,12.1c-1.6,2.8-3.8,6.5-6.8,11c-3,4.5-6.7,9.4-11,14.8c-4.3,5.2-9.5,10.6-15.6,15.9
		c-6.2,5.3-12.9,10.2-20.4,14.5c-8.7,4.7-17.5,8.5-26.3,11.2c-8.9,2.8-17.3,4.9-25.5,6.3c-8.1,1.3-15.2,2.3-21.2,2.7
		c-6.2,0.4-10.6,0.6-13.3,0.6c-5.1,0-12.1-0.4-20.9-1.2c-8.9-0.8-18.6-2.8-29.2-5.9c-10.7-3.2-21.7-8-33.1-14.5
		c-11.4-6.6-22.3-15.5-32.5-27c-4-4.3-8.2-9.9-12.7-16.8c-4.5-6.9-8.7-15.1-12.4-24.5c-3.8-9.4-6.9-20.1-9.4-32.1
		c-2.6-12-3.8-25.3-3.8-39.9c0-4.7,0.3-11.4,0.9-20.1c0.6-8.6,2.3-18.2,5-28.6c2.8-10.5,6.9-21.3,12.4-32.8
		c5.5-11.4,13.2-22.5,23-33c4.4-4.7,9.9-9.9,16.6-15.4c6.7-5.4,14.7-10.6,23.9-15.3c9.2-4.8,20.1-8.7,32.5-11.9
		c12.4-3.1,26.5-4.7,42.2-4.7c4.8,0,11,0.3,18.7,0.9c7.6,0.6,16.2,2.3,25.7,5c9.4,2.8,19.2,6.8,29.2,12.1
		c10.1,5.3,19.8,12.9,29.3,22.8c12.2,12.9,21.6,27.1,28.1,42.2c6.5,15.2,11.1,29.8,13.8,43.7c2.8,14.1,4.2,26.6,4.2,37.6
		C1624.2,1740.1,1624.2,1747.8,1624.2,1752.3z M1599.3,1316.9c0,0-171.4-171.4-247.1-259c-75.7-87.7-200.5-382.6-200.5-382.6
		c10.6,107.6,128.8,332.1,128.8,332.1c-346.7-329.4-530-395.9-530-395.9l338.7,279l-205.9-63.7l206.1,89.2l62.3,27l300.2,303.6
		l-393.2-143.5l212.6,101l-164.8-10.6c223.2,47.8,398.6,106.2,398.6,106.2l85,95.6l-175.3,15.9l201.9,16l26.6,37.2
		c-318.8-5.2-557.9-90.3-648.2-318.7c-90.3-228.5-334.8-595.2-334.8-595.2c244.4,2.7,441.1,33.3,704.1,164.7
		c263,131.5,314.8,390.6,318.8,486.2c4,95.6,35.9,239.1,35.9,239.1s-31.9-27.9-75.7-107.5c-43.8-79.8-95.6-325.5-95.6-325.5
		C1543.6,1104.4,1599.3,1316.9,1599.3,1316.9z M1956.4,1752.3h-214.6c0.4,1.9,0.8,4.4,1.2,7.4c0.4,2.9,1.3,6.6,3,10.9
		c0.4,1.9,1.2,4.6,2.7,8c1.3,3.3,3.3,7.1,5.9,11.2c2.6,4.1,5.8,8.2,9.7,12.1c3.9,4,8.7,7.3,14.2,10.1c3.2,1.2,7.2,2.5,11.9,3.8
		c4.7,1.4,10.8,2.2,18.3,2.2c13.8,0,24.4-2.3,31.9-6.9c7.5-4.5,13-8.9,16.5-13.2c2-2.4,3.8-4.8,5.3-7.4c1.5-2.6,2.6-4.2,3-5l87.4,6
		c-0.8,1.9-1.6,4.8-2.7,8.5c-1,3.8-2.7,7.8-5,12.1c-1.5,2.8-3.8,6.5-6.8,11c-3,4.5-6.6,9.4-11,14.8c-4.3,5.2-9.5,10.6-15.6,15.9
		c-6.2,5.3-12.9,10.2-20.4,14.5c-8.6,4.7-17.4,8.5-26.3,11.2c-8.8,2.8-17.3,4.9-25.5,6.3c-8,1.3-15.2,2.3-21.2,2.7
		c-6.1,0.4-10.6,0.6-13.2,0.6c-5.1,0-12.2-0.4-21-1.2c-8.8-0.8-18.6-2.8-29.3-5.9c-10.7-3.2-21.6-8-33-14.5
		c-11.5-6.6-22.3-15.5-32.5-27c-4-4.3-8.2-9.9-12.7-16.8c-4.5-6.9-8.7-15.1-12.4-24.5s-6.9-20.1-9.4-32.1c-2.6-12-3.8-25.3-3.8-39.9
		c0-4.7,0.3-11.4,0.9-20.1c0.6-8.6,2.3-18.2,5-28.6c2.8-10.5,6.9-21.3,12.4-32.8c5.5-11.4,13.2-22.5,23-33
		c4.4-4.7,9.9-9.9,16.6-15.4c6.7-5.4,14.7-10.6,23.9-15.3c9.2-4.8,20.1-8.7,32.5-11.9c12.4-3.1,26.5-4.7,42.2-4.7
		c4.8,0,11,0.3,18.7,0.9c7.7,0.6,16.2,2.3,25.7,5c9.4,2.8,19.3,6.8,29.3,12.1c10.1,5.3,19.8,12.9,29.2,22.8
		c12.2,12.9,21.7,27.1,28.1,42.2c6.5,15.2,11.1,29.8,13.9,43.7c2.8,14.1,4.2,26.6,4.2,37.6
		C1956.4,1740.1,1956.4,1747.8,1956.4,1752.3z M2283,1879.8h-84.5v-28.9c-1.9,2.3-3.7,4.6-5.3,6.8c-1.5,2.3-3.3,4.3-5.2,6.3
		c-5.5,4.7-14.1,9.9-25.5,15.3c-11.4,5.5-26.4,8.3-44.8,8.3c-15.4,0-28.1-1.8-38.2-5.5c-10.1-3.8-17.9-7.3-23.3-10.4
		c-7.5-4.4-15.3-10.4-23.4-18.1c-8.1-7.7-15.5-17.3-22.5-28.9c-6.9-11.6-12.5-25.5-16.8-41.4c-4.3-16-6.5-34.4-6.5-55.2
		c0-22.5,3.2-44.6,9.4-66.5c6.3-21.9,17.7-41.2,34.3-58.2c8.6-8.7,17.5-15.6,26.6-20.7c9-5.1,17.7-8.8,25.8-11.2
		c8-2.5,15.5-3.9,22.4-4.5c7-0.5,12.7-0.8,17.5-0.8c7.1,0,13.4,0.5,19,1.4c5.4,1,11.6,2.9,18.3,5.6c2.4,0.8,4.9,1.8,7.7,3
		c2.7,1.1,5.3,2.4,7.7,3.5c2.7,2,6.1,4.4,10,7.1c4,2.8,7.2,5.1,9.5,7.1v-131.1h87.9V1879.8z"/>
	<path fill="#FFFFFF" d="M1528.5,1668.3c-1.2-3.2-3-6.8-5.6-11c-2.6-4.1-6.1-7.9-10.4-11.5c-4.3-3.5-9.7-6.5-16.2-8.8
		c-6.6-2.4-14.1-3.6-22.8-3.6c-3.2,0-7.3,0.3-12.4,0.9c-5.1,0.6-10.4,2.1-15.6,4.4c-5.3,2.4-10.7,6.1-16,11
		c-5.3,4.9-9.7,11.5-13.3,19.7c-1.6,2.8-2.6,5-3.2,6.9c-0.6,1.7-1.5,5-2.7,9.7h122.3c-0.4-2.8-0.9-5.6-1.5-8.6
		S1529.7,1671.5,1528.5,1668.3z"/>
</g>
</svg>
